M48
INCH,TZ
T1C0.016
T2C0.031
T3C0.032
T4C0.032
T5C0.035
T6C0.039
T7C0.040
T8C0.050
T9C0.134
%
G90
G05
T1
X23200Y-32800
X23600Y-32000
X23600Y-33200
X24000Y-28800
X24600Y-27200
X24800Y-33200
X26000Y-28800
X27600Y-32800
X28000Y-27200
X29400Y-32000
X30100Y-34700
X31300Y-35800
X33700Y-33900
X33800Y-35200
X35300Y-48400
X35500Y-29800
X35500Y-32100
X36000Y-32500
X36000Y-34500
X36000Y-35500
X36000Y-36500
X36300Y-47400
X37000Y-33500
X37300Y-44400
X37300Y-45300
X37500Y-30300
X37500Y-32700
X37500Y-34500
X38500Y-30300
T2
X25000Y-25000
X25000Y-31000
X25500Y-34000
X25500Y-35000
X25500Y-36000
X25500Y-37000
X25500Y-38000
X25500Y-39000
X25500Y-40000
X25500Y-41000
X25500Y-44800
X25500Y-45800
X25500Y-46800
X25500Y-47800
X26000Y-25000
X26000Y-31000
X27000Y-25000
X27000Y-31000
X28000Y-25000
X28000Y-31000
X28500Y-34000
X28500Y-35000
X28500Y-36000
X28500Y-37000
X28500Y-38000
X28500Y-39000
X28500Y-40000
X28500Y-41000
X28500Y-44800
X28500Y-45800
X28500Y-46800
X28500Y-47800
X29000Y-25000
X29000Y-31000
X30000Y-25000
X30000Y-31000
X30400Y-36000
X30400Y-37000
X30400Y-38000
X30400Y-39000
X30400Y-40000
X30400Y-41000
X30400Y-42000
X30400Y-43000
X31000Y-25000
X31000Y-31000
X32000Y-25000
X32000Y-31000
X33000Y-25000
X33000Y-31000
X33400Y-36000
X33400Y-37000
X33400Y-38000
X33400Y-39000
X33400Y-40000
X33400Y-41000
X33400Y-42000
X33400Y-43000
X33800Y-49000
X33800Y-50000
X33800Y-51000
X33800Y-52000
X34000Y-25000
X34000Y-31000
X35000Y-25000
X35000Y-31000
X35300Y-34000
X35300Y-35000
X35300Y-36000
X35300Y-37000
X35300Y-38000
X35300Y-39000
X35300Y-40000
X35300Y-41000
X35300Y-43800
X35300Y-44800
X35300Y-45800
X35300Y-46800
X36000Y-25000
X36000Y-31000
X36800Y-49000
X36800Y-50000
X36800Y-51000
X36800Y-52000
X37000Y-25000
X37000Y-31000
X38000Y-25000
X38000Y-31000
X38300Y-34000
X38300Y-35000
X38300Y-36000
X38300Y-37000
X38300Y-38000
X38300Y-39000
X38300Y-40000
X38300Y-41000
X38300Y-43800
X38300Y-44800
X38300Y-45800
X38300Y-46800
X39000Y-25000
X39000Y-31000
T3
X30006Y-46000
X30794Y-46000
X39600Y-37300
X40600Y-37300
T4
X40200Y-44800
X40200Y-45800
X40200Y-46800
T5
X26800Y-53800
X28769Y-53800
X30100Y-48100
X32069Y-48100
X38300Y-49100
X38300Y-51000
X40269Y-49100
X40269Y-51000
T6
X23500Y-36000
X23500Y-40000
X23600Y-46900
X23600Y-50900
X27000Y-26500
X27000Y-28000
X27000Y-29500
X28600Y-49600
X28600Y-52000
X29900Y-44500
X30099Y-53800
X31000Y-26500
X31000Y-28000
X31000Y-29500
X31099Y-53800
X32500Y-26500
X32500Y-28000
X32500Y-29500
X32600Y-49600
X32600Y-52000
X33300Y-53800
X33900Y-44500
X36500Y-26500
X36500Y-28000
X36500Y-29500
X37300Y-53800
X40200Y-39000
X40200Y-43000
X40699Y-35000
T7
X23500Y-41900
X23600Y-44800
X23600Y-45800
X24500Y-41900
X30100Y-50800
X31100Y-50800
X39400Y-32300
X39400Y-33300
T8
X40699Y-31000
T9
X24500Y-53500
X32000Y-33500
X39500Y-53500
T0
M30
