G04 #@! TF.FileFunction,Legend,Top*
%FSLAX46Y46*%
G04 Gerber Fmt 4.6, Leading zero omitted, Abs format (unit mm)*
G04 Created by KiCad (PCBNEW (2015-04-30 BZR 5634)-product) date Mon 22 Jun 2015 08:21:25 PM CEST*
%MOMM*%
G01*
G04 APERTURE LIST*
%ADD10C,0.100000*%
%ADD11C,0.150000*%
G04 APERTURE END LIST*
D10*
D11*
X101346000Y-83312000D02*
X101346000Y-85852000D01*
X101626000Y-80492000D02*
X101626000Y-82042000D01*
X101346000Y-83312000D02*
X98806000Y-83312000D01*
X98526000Y-82042000D02*
X98526000Y-80492000D01*
X98526000Y-80492000D02*
X101626000Y-80492000D01*
X98806000Y-83312000D02*
X98806000Y-85852000D01*
X98806000Y-85852000D02*
X101346000Y-85852000D01*
X101854000Y-96266000D02*
X102920800Y-96266000D01*
X102362000Y-96774000D02*
X102362000Y-95732600D01*
X104394000Y-94742000D02*
G75*
G03X104394000Y-94742000I-2540000J0D01*
G01*
X96032000Y-122464000D02*
X103532000Y-122464000D01*
X103532000Y-122464000D02*
X103532000Y-126964000D01*
X103532000Y-126964000D02*
X96032000Y-126964000D01*
X96032000Y-126964000D02*
X96032000Y-122464000D01*
X96032000Y-127290000D02*
X103532000Y-127290000D01*
X103532000Y-127290000D02*
X103532000Y-131790000D01*
X103532000Y-131790000D02*
X96032000Y-131790000D01*
X96032000Y-131790000D02*
X96032000Y-127290000D01*
X66822000Y-134402000D02*
X74322000Y-134402000D01*
X74322000Y-134402000D02*
X74322000Y-138902000D01*
X74322000Y-138902000D02*
X66822000Y-138902000D01*
X66822000Y-138902000D02*
X66822000Y-134402000D01*
X76415900Y-114940080D02*
X76415900Y-115539520D01*
X76116180Y-115239800D02*
X76715620Y-115239800D01*
X79715360Y-116840000D02*
G75*
G03X79715360Y-116840000I-2499360J0D01*
G01*
X75204000Y-119924000D02*
X82704000Y-119924000D01*
X82704000Y-119924000D02*
X82704000Y-124424000D01*
X82704000Y-124424000D02*
X75204000Y-124424000D01*
X75204000Y-124424000D02*
X75204000Y-119924000D01*
X103375460Y-81280000D02*
X103375460Y-80264000D01*
X103375460Y-86106000D02*
X103375460Y-87376000D01*
X102105460Y-85852000D02*
X104645460Y-85852000D01*
X102105460Y-85598000D02*
X104645460Y-85598000D01*
X102105460Y-85344000D02*
X104645460Y-85344000D01*
X102105460Y-86106000D02*
X104645460Y-86106000D01*
X102105460Y-85090000D02*
X104645460Y-86360000D01*
X102105460Y-86360000D02*
X104645460Y-85090000D01*
X102105460Y-85090000D02*
X104645460Y-85090000D01*
X102105460Y-85725000D02*
X104645460Y-85725000D01*
X104645460Y-86360000D02*
X102105460Y-86360000D01*
X102105460Y-86360000D02*
X102105460Y-81280000D01*
X102105460Y-81280000D02*
X104645460Y-81280000D01*
X104645460Y-81280000D02*
X104645460Y-86360000D01*
X97147000Y-106435000D02*
X97147000Y-105165000D01*
X89797000Y-106435000D02*
X89797000Y-105165000D01*
X89797000Y-84065000D02*
X89797000Y-85335000D01*
X97147000Y-84065000D02*
X97147000Y-85335000D01*
X97147000Y-106435000D02*
X89797000Y-106435000D01*
X97147000Y-84065000D02*
X89797000Y-84065000D01*
X97147000Y-105165000D02*
X98432000Y-105165000D01*
X84701000Y-111515000D02*
X84701000Y-110245000D01*
X77351000Y-111515000D02*
X77351000Y-110245000D01*
X77351000Y-89145000D02*
X77351000Y-90415000D01*
X84701000Y-89145000D02*
X84701000Y-90415000D01*
X84701000Y-111515000D02*
X77351000Y-111515000D01*
X84701000Y-89145000D02*
X77351000Y-89145000D01*
X84701000Y-110245000D02*
X85986000Y-110245000D01*
X72255000Y-106435000D02*
X72255000Y-105165000D01*
X64905000Y-106435000D02*
X64905000Y-105165000D01*
X64905000Y-84065000D02*
X64905000Y-85335000D01*
X72255000Y-84065000D02*
X72255000Y-85335000D01*
X72255000Y-106435000D02*
X64905000Y-106435000D01*
X72255000Y-84065000D02*
X64905000Y-84065000D01*
X72255000Y-105165000D02*
X73540000Y-105165000D01*
X89797000Y-108957000D02*
X89797000Y-110227000D01*
X97147000Y-108957000D02*
X97147000Y-110227000D01*
X97147000Y-121167000D02*
X97147000Y-119897000D01*
X89797000Y-121167000D02*
X89797000Y-119897000D01*
X89797000Y-108957000D02*
X97147000Y-108957000D01*
X89797000Y-121167000D02*
X97147000Y-121167000D01*
X89797000Y-110227000D02*
X88512000Y-110227000D01*
X85987000Y-122165000D02*
X85987000Y-123435000D01*
X93337000Y-122165000D02*
X93337000Y-123435000D01*
X93337000Y-134375000D02*
X93337000Y-133105000D01*
X85987000Y-134375000D02*
X85987000Y-133105000D01*
X85987000Y-122165000D02*
X93337000Y-122165000D01*
X85987000Y-134375000D02*
X93337000Y-134375000D01*
X85987000Y-123435000D02*
X84702000Y-123435000D01*
X64905000Y-111497000D02*
X64905000Y-112767000D01*
X72255000Y-111497000D02*
X72255000Y-112767000D01*
X72255000Y-123707000D02*
X72255000Y-122437000D01*
X64905000Y-123707000D02*
X64905000Y-122437000D01*
X64905000Y-111497000D02*
X72255000Y-111497000D01*
X64905000Y-123707000D02*
X72255000Y-123707000D01*
X64905000Y-112767000D02*
X63620000Y-112767000D01*
X75237772Y-138176904D02*
G75*
G03X75222660Y-135152000I2484888J1524904D01*
G01*
X75222660Y-138152000D02*
X75222660Y-135152000D01*
X80240596Y-136652000D02*
G75*
G03X80240596Y-136652000I-2517936J0D01*
G01*
X85090000Y-66040000D02*
X90170000Y-66040000D01*
X90170000Y-66040000D02*
X90170000Y-68580000D01*
X90170000Y-68580000D02*
X85090000Y-68580000D01*
X85090000Y-68580000D02*
X85090000Y-66040000D01*
X85090000Y-67310000D02*
X83820000Y-67310000D01*
X90170000Y-67310000D02*
X91440000Y-67310000D01*
X85090000Y-69850000D02*
X90170000Y-69850000D01*
X90170000Y-69850000D02*
X90170000Y-72390000D01*
X90170000Y-72390000D02*
X85090000Y-72390000D01*
X85090000Y-72390000D02*
X85090000Y-69850000D01*
X85090000Y-71120000D02*
X83820000Y-71120000D01*
X90170000Y-71120000D02*
X91440000Y-71120000D01*
X90170000Y-76200000D02*
X85090000Y-76200000D01*
X85090000Y-76200000D02*
X85090000Y-73660000D01*
X85090000Y-73660000D02*
X90170000Y-73660000D01*
X90170000Y-73660000D02*
X90170000Y-76200000D01*
X90170000Y-74930000D02*
X91440000Y-74930000D01*
X85090000Y-74930000D02*
X83820000Y-74930000D01*
X71120000Y-69850000D02*
X76200000Y-69850000D01*
X76200000Y-69850000D02*
X76200000Y-72390000D01*
X76200000Y-72390000D02*
X71120000Y-72390000D01*
X71120000Y-72390000D02*
X71120000Y-69850000D01*
X71120000Y-71120000D02*
X69850000Y-71120000D01*
X76200000Y-71120000D02*
X77470000Y-71120000D01*
X76200000Y-68580000D02*
X71120000Y-68580000D01*
X71120000Y-68580000D02*
X71120000Y-66040000D01*
X71120000Y-66040000D02*
X76200000Y-66040000D01*
X76200000Y-66040000D02*
X76200000Y-68580000D01*
X76200000Y-67310000D02*
X77470000Y-67310000D01*
X71120000Y-67310000D02*
X69850000Y-67310000D01*
X76200000Y-76200000D02*
X71120000Y-76200000D01*
X71120000Y-76200000D02*
X71120000Y-73660000D01*
X71120000Y-73660000D02*
X76200000Y-73660000D01*
X76200000Y-73660000D02*
X76200000Y-76200000D01*
X76200000Y-74930000D02*
X77470000Y-74930000D01*
X71120000Y-74930000D02*
X69850000Y-74930000D01*
X103378000Y-101600000D02*
X103378000Y-106680000D01*
X103378000Y-106680000D02*
X100838000Y-106680000D01*
X100838000Y-106680000D02*
X100838000Y-101600000D01*
X100838000Y-101600000D02*
X103378000Y-101600000D01*
X102108000Y-101600000D02*
X102108000Y-100330000D01*
X102108000Y-106680000D02*
X102108000Y-107950000D01*
X100076000Y-119888000D02*
X101346000Y-119888000D01*
X100825300Y-119100600D02*
X100571300Y-119138700D01*
X100571300Y-119138700D02*
X100291900Y-119316500D01*
X100291900Y-119316500D02*
X100076000Y-119634000D01*
X100076000Y-119634000D02*
X100063300Y-120078500D01*
X100063300Y-120078500D02*
X100266500Y-120434100D01*
X100266500Y-120434100D02*
X100558600Y-120611900D01*
X100558600Y-120611900D02*
X100876100Y-120662700D01*
X100876100Y-120662700D02*
X101282500Y-120561100D01*
X101282500Y-120561100D02*
X101536500Y-120218200D01*
X101536500Y-120218200D02*
X101625400Y-120040400D01*
X103886000Y-111506000D02*
X103886000Y-121158000D01*
X100838000Y-121158000D02*
X99568000Y-121158000D01*
X99568000Y-121158000D02*
X99568000Y-111506000D01*
X99568000Y-111506000D02*
X104648000Y-111506000D01*
X104648000Y-121158000D02*
X102108000Y-121158000D01*
X102108000Y-121158000D02*
X100838000Y-121158000D01*
X80264000Y-127254000D02*
X75184000Y-127254000D01*
X75184000Y-127254000D02*
X75184000Y-124714000D01*
X75184000Y-124714000D02*
X80264000Y-124714000D01*
X80264000Y-124714000D02*
X80264000Y-127254000D01*
X80264000Y-125984000D02*
X81534000Y-125984000D01*
X75184000Y-125984000D02*
X73914000Y-125984000D01*
X80264000Y-133350000D02*
X75184000Y-133350000D01*
X75184000Y-133350000D02*
X75184000Y-130810000D01*
X75184000Y-130810000D02*
X80264000Y-130810000D01*
X80264000Y-130810000D02*
X80264000Y-133350000D01*
X80264000Y-132080000D02*
X81534000Y-132080000D01*
X75184000Y-132080000D02*
X73914000Y-132080000D01*
X83566000Y-114300000D02*
X78486000Y-114300000D01*
X78486000Y-114300000D02*
X78486000Y-111760000D01*
X78486000Y-111760000D02*
X83566000Y-111760000D01*
X83566000Y-111760000D02*
X83566000Y-114300000D01*
X83566000Y-113030000D02*
X84836000Y-113030000D01*
X78486000Y-113030000D02*
X77216000Y-113030000D01*
X92202000Y-137922000D02*
X87122000Y-137922000D01*
X87122000Y-137922000D02*
X87122000Y-135382000D01*
X87122000Y-135382000D02*
X92202000Y-135382000D01*
X92202000Y-135382000D02*
X92202000Y-137922000D01*
X92202000Y-136652000D02*
X93472000Y-136652000D01*
X87122000Y-136652000D02*
X85852000Y-136652000D01*
X61214000Y-121666000D02*
X61214000Y-126746000D01*
X61214000Y-126746000D02*
X58674000Y-126746000D01*
X58674000Y-126746000D02*
X58674000Y-121666000D01*
X58674000Y-121666000D02*
X61214000Y-121666000D01*
X59944000Y-121666000D02*
X59944000Y-120396000D01*
X59944000Y-126746000D02*
X59944000Y-128016000D01*
X60960000Y-93980000D02*
X60960000Y-99060000D01*
X60960000Y-99060000D02*
X58420000Y-99060000D01*
X58420000Y-99060000D02*
X58420000Y-93980000D01*
X58420000Y-93980000D02*
X60960000Y-93980000D01*
X59690000Y-93980000D02*
X59690000Y-92710000D01*
X59690000Y-99060000D02*
X59690000Y-100330000D01*
X60960000Y-105156000D02*
X63500000Y-105156000D01*
X58140000Y-104876000D02*
X59690000Y-104876000D01*
X60960000Y-105156000D02*
X60960000Y-107696000D01*
X59690000Y-107976000D02*
X58140000Y-107976000D01*
X58140000Y-107976000D02*
X58140000Y-104876000D01*
X60960000Y-107696000D02*
X63500000Y-107696000D01*
X63500000Y-107696000D02*
X63500000Y-105156000D01*
X77724000Y-127762000D02*
X80264000Y-127762000D01*
X74904000Y-127482000D02*
X76454000Y-127482000D01*
X77724000Y-127762000D02*
X77724000Y-130302000D01*
X76454000Y-130582000D02*
X74904000Y-130582000D01*
X74904000Y-130582000D02*
X74904000Y-127482000D01*
X77724000Y-130302000D02*
X80264000Y-130302000D01*
X80264000Y-130302000D02*
X80264000Y-127762000D01*
X61214000Y-115062000D02*
X61214000Y-117602000D01*
X61494000Y-112242000D02*
X61494000Y-113792000D01*
X61214000Y-115062000D02*
X58674000Y-115062000D01*
X58394000Y-113792000D02*
X58394000Y-112242000D01*
X58394000Y-112242000D02*
X61494000Y-112242000D01*
X58674000Y-115062000D02*
X58674000Y-117602000D01*
X58674000Y-117602000D02*
X61214000Y-117602000D01*
X64516000Y-135890000D02*
G75*
G03X64516000Y-135890000I-2286000J0D01*
G01*
X102616000Y-135890000D02*
G75*
G03X102616000Y-135890000I-2286000J0D01*
G01*
X83566000Y-85090000D02*
G75*
G03X83566000Y-85090000I-2286000J0D01*
G01*
X99544286Y-86542571D02*
X99687143Y-86590190D01*
X99734762Y-86637810D01*
X99782381Y-86733048D01*
X99782381Y-86875905D01*
X99734762Y-86971143D01*
X99687143Y-87018762D01*
X99591905Y-87066381D01*
X99210952Y-87066381D01*
X99210952Y-86066381D01*
X99544286Y-86066381D01*
X99639524Y-86114000D01*
X99687143Y-86161619D01*
X99734762Y-86256857D01*
X99734762Y-86352095D01*
X99687143Y-86447333D01*
X99639524Y-86494952D01*
X99544286Y-86542571D01*
X99210952Y-86542571D01*
X100068095Y-86066381D02*
X100639524Y-86066381D01*
X100353809Y-87066381D02*
X100353809Y-86066381D01*
X101496667Y-87066381D02*
X100925238Y-87066381D01*
X101210952Y-87066381D02*
X101210952Y-86066381D01*
X101115714Y-86209238D01*
X101020476Y-86304476D01*
X100925238Y-86352095D01*
X101687334Y-93575143D02*
X101639715Y-93622762D01*
X101496858Y-93670381D01*
X101401620Y-93670381D01*
X101258762Y-93622762D01*
X101163524Y-93527524D01*
X101115905Y-93432286D01*
X101068286Y-93241810D01*
X101068286Y-93098952D01*
X101115905Y-92908476D01*
X101163524Y-92813238D01*
X101258762Y-92718000D01*
X101401620Y-92670381D01*
X101496858Y-92670381D01*
X101639715Y-92718000D01*
X101687334Y-92765619D01*
X102639715Y-93670381D02*
X102068286Y-93670381D01*
X102354000Y-93670381D02*
X102354000Y-92670381D01*
X102258762Y-92813238D01*
X102163524Y-92908476D01*
X102068286Y-92956095D01*
X99655334Y-125071143D02*
X99607715Y-125118762D01*
X99464858Y-125166381D01*
X99369620Y-125166381D01*
X99226762Y-125118762D01*
X99131524Y-125023524D01*
X99083905Y-124928286D01*
X99036286Y-124737810D01*
X99036286Y-124594952D01*
X99083905Y-124404476D01*
X99131524Y-124309238D01*
X99226762Y-124214000D01*
X99369620Y-124166381D01*
X99464858Y-124166381D01*
X99607715Y-124214000D01*
X99655334Y-124261619D01*
X100036286Y-124261619D02*
X100083905Y-124214000D01*
X100179143Y-124166381D01*
X100417239Y-124166381D01*
X100512477Y-124214000D01*
X100560096Y-124261619D01*
X100607715Y-124356857D01*
X100607715Y-124452095D01*
X100560096Y-124594952D01*
X99988667Y-125166381D01*
X100607715Y-125166381D01*
X99655334Y-129897143D02*
X99607715Y-129944762D01*
X99464858Y-129992381D01*
X99369620Y-129992381D01*
X99226762Y-129944762D01*
X99131524Y-129849524D01*
X99083905Y-129754286D01*
X99036286Y-129563810D01*
X99036286Y-129420952D01*
X99083905Y-129230476D01*
X99131524Y-129135238D01*
X99226762Y-129040000D01*
X99369620Y-128992381D01*
X99464858Y-128992381D01*
X99607715Y-129040000D01*
X99655334Y-129087619D01*
X99988667Y-128992381D02*
X100607715Y-128992381D01*
X100274381Y-129373333D01*
X100417239Y-129373333D01*
X100512477Y-129420952D01*
X100560096Y-129468571D01*
X100607715Y-129563810D01*
X100607715Y-129801905D01*
X100560096Y-129897143D01*
X100512477Y-129944762D01*
X100417239Y-129992381D01*
X100131524Y-129992381D01*
X100036286Y-129944762D01*
X99988667Y-129897143D01*
X70445334Y-137009143D02*
X70397715Y-137056762D01*
X70254858Y-137104381D01*
X70159620Y-137104381D01*
X70016762Y-137056762D01*
X69921524Y-136961524D01*
X69873905Y-136866286D01*
X69826286Y-136675810D01*
X69826286Y-136532952D01*
X69873905Y-136342476D01*
X69921524Y-136247238D01*
X70016762Y-136152000D01*
X70159620Y-136104381D01*
X70254858Y-136104381D01*
X70397715Y-136152000D01*
X70445334Y-136199619D01*
X71302477Y-136437714D02*
X71302477Y-137104381D01*
X71064381Y-136056762D02*
X70826286Y-136771048D01*
X71445334Y-136771048D01*
X77049334Y-118975143D02*
X77001715Y-119022762D01*
X76858858Y-119070381D01*
X76763620Y-119070381D01*
X76620762Y-119022762D01*
X76525524Y-118927524D01*
X76477905Y-118832286D01*
X76430286Y-118641810D01*
X76430286Y-118498952D01*
X76477905Y-118308476D01*
X76525524Y-118213238D01*
X76620762Y-118118000D01*
X76763620Y-118070381D01*
X76858858Y-118070381D01*
X77001715Y-118118000D01*
X77049334Y-118165619D01*
X77954096Y-118070381D02*
X77477905Y-118070381D01*
X77430286Y-118546571D01*
X77477905Y-118498952D01*
X77573143Y-118451333D01*
X77811239Y-118451333D01*
X77906477Y-118498952D01*
X77954096Y-118546571D01*
X78001715Y-118641810D01*
X78001715Y-118879905D01*
X77954096Y-118975143D01*
X77906477Y-119022762D01*
X77811239Y-119070381D01*
X77573143Y-119070381D01*
X77477905Y-119022762D01*
X77430286Y-118975143D01*
X78827334Y-122531143D02*
X78779715Y-122578762D01*
X78636858Y-122626381D01*
X78541620Y-122626381D01*
X78398762Y-122578762D01*
X78303524Y-122483524D01*
X78255905Y-122388286D01*
X78208286Y-122197810D01*
X78208286Y-122054952D01*
X78255905Y-121864476D01*
X78303524Y-121769238D01*
X78398762Y-121674000D01*
X78541620Y-121626381D01*
X78636858Y-121626381D01*
X78779715Y-121674000D01*
X78827334Y-121721619D01*
X79684477Y-121626381D02*
X79494000Y-121626381D01*
X79398762Y-121674000D01*
X79351143Y-121721619D01*
X79255905Y-121864476D01*
X79208286Y-122054952D01*
X79208286Y-122435905D01*
X79255905Y-122531143D01*
X79303524Y-122578762D01*
X79398762Y-122626381D01*
X79589239Y-122626381D01*
X79684477Y-122578762D01*
X79732096Y-122531143D01*
X79779715Y-122435905D01*
X79779715Y-122197810D01*
X79732096Y-122102571D01*
X79684477Y-122054952D01*
X79589239Y-122007333D01*
X79398762Y-122007333D01*
X79303524Y-122054952D01*
X79255905Y-122102571D01*
X79208286Y-122197810D01*
X103830381Y-83796095D02*
X102830381Y-83796095D01*
X102830381Y-83558000D01*
X102878000Y-83415142D01*
X102973238Y-83319904D01*
X103068476Y-83272285D01*
X103258952Y-83224666D01*
X103401810Y-83224666D01*
X103592286Y-83272285D01*
X103687524Y-83319904D01*
X103782762Y-83415142D01*
X103830381Y-83558000D01*
X103830381Y-83796095D01*
X103830381Y-82272285D02*
X103830381Y-82843714D01*
X103830381Y-82558000D02*
X102830381Y-82558000D01*
X102973238Y-82653238D01*
X103068476Y-82748476D01*
X103116095Y-82843714D01*
X92495810Y-103322381D02*
X92495810Y-102322381D01*
X93543429Y-103227143D02*
X93495810Y-103274762D01*
X93352953Y-103322381D01*
X93257715Y-103322381D01*
X93114857Y-103274762D01*
X93019619Y-103179524D01*
X92972000Y-103084286D01*
X92924381Y-102893810D01*
X92924381Y-102750952D01*
X92972000Y-102560476D01*
X93019619Y-102465238D01*
X93114857Y-102370000D01*
X93257715Y-102322381D01*
X93352953Y-102322381D01*
X93495810Y-102370000D01*
X93543429Y-102417619D01*
X94495810Y-103322381D02*
X93924381Y-103322381D01*
X94210095Y-103322381D02*
X94210095Y-102322381D01*
X94114857Y-102465238D01*
X94019619Y-102560476D01*
X93924381Y-102608095D01*
X80049810Y-108402381D02*
X80049810Y-107402381D01*
X81097429Y-108307143D02*
X81049810Y-108354762D01*
X80906953Y-108402381D01*
X80811715Y-108402381D01*
X80668857Y-108354762D01*
X80573619Y-108259524D01*
X80526000Y-108164286D01*
X80478381Y-107973810D01*
X80478381Y-107830952D01*
X80526000Y-107640476D01*
X80573619Y-107545238D01*
X80668857Y-107450000D01*
X80811715Y-107402381D01*
X80906953Y-107402381D01*
X81049810Y-107450000D01*
X81097429Y-107497619D01*
X81478381Y-107497619D02*
X81526000Y-107450000D01*
X81621238Y-107402381D01*
X81859334Y-107402381D01*
X81954572Y-107450000D01*
X82002191Y-107497619D01*
X82049810Y-107592857D01*
X82049810Y-107688095D01*
X82002191Y-107830952D01*
X81430762Y-108402381D01*
X82049810Y-108402381D01*
X67603810Y-103322381D02*
X67603810Y-102322381D01*
X68651429Y-103227143D02*
X68603810Y-103274762D01*
X68460953Y-103322381D01*
X68365715Y-103322381D01*
X68222857Y-103274762D01*
X68127619Y-103179524D01*
X68080000Y-103084286D01*
X68032381Y-102893810D01*
X68032381Y-102750952D01*
X68080000Y-102560476D01*
X68127619Y-102465238D01*
X68222857Y-102370000D01*
X68365715Y-102322381D01*
X68460953Y-102322381D01*
X68603810Y-102370000D01*
X68651429Y-102417619D01*
X68984762Y-102322381D02*
X69603810Y-102322381D01*
X69270476Y-102703333D01*
X69413334Y-102703333D01*
X69508572Y-102750952D01*
X69556191Y-102798571D01*
X69603810Y-102893810D01*
X69603810Y-103131905D01*
X69556191Y-103227143D01*
X69508572Y-103274762D01*
X69413334Y-103322381D01*
X69127619Y-103322381D01*
X69032381Y-103274762D01*
X68984762Y-103227143D01*
X92495810Y-111704381D02*
X92495810Y-110704381D01*
X93543429Y-111609143D02*
X93495810Y-111656762D01*
X93352953Y-111704381D01*
X93257715Y-111704381D01*
X93114857Y-111656762D01*
X93019619Y-111561524D01*
X92972000Y-111466286D01*
X92924381Y-111275810D01*
X92924381Y-111132952D01*
X92972000Y-110942476D01*
X93019619Y-110847238D01*
X93114857Y-110752000D01*
X93257715Y-110704381D01*
X93352953Y-110704381D01*
X93495810Y-110752000D01*
X93543429Y-110799619D01*
X94448191Y-110704381D02*
X93972000Y-110704381D01*
X93924381Y-111180571D01*
X93972000Y-111132952D01*
X94067238Y-111085333D01*
X94305334Y-111085333D01*
X94400572Y-111132952D01*
X94448191Y-111180571D01*
X94495810Y-111275810D01*
X94495810Y-111513905D01*
X94448191Y-111609143D01*
X94400572Y-111656762D01*
X94305334Y-111704381D01*
X94067238Y-111704381D01*
X93972000Y-111656762D01*
X93924381Y-111609143D01*
X88685810Y-124912381D02*
X88685810Y-123912381D01*
X89733429Y-124817143D02*
X89685810Y-124864762D01*
X89542953Y-124912381D01*
X89447715Y-124912381D01*
X89304857Y-124864762D01*
X89209619Y-124769524D01*
X89162000Y-124674286D01*
X89114381Y-124483810D01*
X89114381Y-124340952D01*
X89162000Y-124150476D01*
X89209619Y-124055238D01*
X89304857Y-123960000D01*
X89447715Y-123912381D01*
X89542953Y-123912381D01*
X89685810Y-123960000D01*
X89733429Y-124007619D01*
X90590572Y-123912381D02*
X90400095Y-123912381D01*
X90304857Y-123960000D01*
X90257238Y-124007619D01*
X90162000Y-124150476D01*
X90114381Y-124340952D01*
X90114381Y-124721905D01*
X90162000Y-124817143D01*
X90209619Y-124864762D01*
X90304857Y-124912381D01*
X90495334Y-124912381D01*
X90590572Y-124864762D01*
X90638191Y-124817143D01*
X90685810Y-124721905D01*
X90685810Y-124483810D01*
X90638191Y-124388571D01*
X90590572Y-124340952D01*
X90495334Y-124293333D01*
X90304857Y-124293333D01*
X90209619Y-124340952D01*
X90162000Y-124388571D01*
X90114381Y-124483810D01*
X67603810Y-114244381D02*
X67603810Y-113244381D01*
X68651429Y-114149143D02*
X68603810Y-114196762D01*
X68460953Y-114244381D01*
X68365715Y-114244381D01*
X68222857Y-114196762D01*
X68127619Y-114101524D01*
X68080000Y-114006286D01*
X68032381Y-113815810D01*
X68032381Y-113672952D01*
X68080000Y-113482476D01*
X68127619Y-113387238D01*
X68222857Y-113292000D01*
X68365715Y-113244381D01*
X68460953Y-113244381D01*
X68603810Y-113292000D01*
X68651429Y-113339619D01*
X68984762Y-113244381D02*
X69651429Y-113244381D01*
X69222857Y-114244381D01*
X80922953Y-139644381D02*
X80446762Y-139644381D01*
X80446762Y-138644381D01*
X81256286Y-139120571D02*
X81589620Y-139120571D01*
X81732477Y-139644381D02*
X81256286Y-139644381D01*
X81256286Y-138644381D01*
X81732477Y-138644381D01*
X82161048Y-139644381D02*
X82161048Y-138644381D01*
X82399143Y-138644381D01*
X82542001Y-138692000D01*
X82637239Y-138787238D01*
X82684858Y-138882476D01*
X82732477Y-139072952D01*
X82732477Y-139215810D01*
X82684858Y-139406286D01*
X82637239Y-139501524D01*
X82542001Y-139596762D01*
X82399143Y-139644381D01*
X82161048Y-139644381D01*
X83684858Y-139644381D02*
X83113429Y-139644381D01*
X83399143Y-139644381D02*
X83399143Y-138644381D01*
X83303905Y-138787238D01*
X83208667Y-138882476D01*
X83113429Y-138930095D01*
X87463334Y-67762381D02*
X87130000Y-67286190D01*
X86891905Y-67762381D02*
X86891905Y-66762381D01*
X87272858Y-66762381D01*
X87368096Y-66810000D01*
X87415715Y-66857619D01*
X87463334Y-66952857D01*
X87463334Y-67095714D01*
X87415715Y-67190952D01*
X87368096Y-67238571D01*
X87272858Y-67286190D01*
X86891905Y-67286190D01*
X88415715Y-67762381D02*
X87844286Y-67762381D01*
X88130000Y-67762381D02*
X88130000Y-66762381D01*
X88034762Y-66905238D01*
X87939524Y-67000476D01*
X87844286Y-67048095D01*
X87463334Y-71572381D02*
X87130000Y-71096190D01*
X86891905Y-71572381D02*
X86891905Y-70572381D01*
X87272858Y-70572381D01*
X87368096Y-70620000D01*
X87415715Y-70667619D01*
X87463334Y-70762857D01*
X87463334Y-70905714D01*
X87415715Y-71000952D01*
X87368096Y-71048571D01*
X87272858Y-71096190D01*
X86891905Y-71096190D01*
X87844286Y-70667619D02*
X87891905Y-70620000D01*
X87987143Y-70572381D01*
X88225239Y-70572381D01*
X88320477Y-70620000D01*
X88368096Y-70667619D01*
X88415715Y-70762857D01*
X88415715Y-70858095D01*
X88368096Y-71000952D01*
X87796667Y-71572381D01*
X88415715Y-71572381D01*
X87463334Y-75382381D02*
X87130000Y-74906190D01*
X86891905Y-75382381D02*
X86891905Y-74382381D01*
X87272858Y-74382381D01*
X87368096Y-74430000D01*
X87415715Y-74477619D01*
X87463334Y-74572857D01*
X87463334Y-74715714D01*
X87415715Y-74810952D01*
X87368096Y-74858571D01*
X87272858Y-74906190D01*
X86891905Y-74906190D01*
X87796667Y-74382381D02*
X88415715Y-74382381D01*
X88082381Y-74763333D01*
X88225239Y-74763333D01*
X88320477Y-74810952D01*
X88368096Y-74858571D01*
X88415715Y-74953810D01*
X88415715Y-75191905D01*
X88368096Y-75287143D01*
X88320477Y-75334762D01*
X88225239Y-75382381D01*
X87939524Y-75382381D01*
X87844286Y-75334762D01*
X87796667Y-75287143D01*
X73493334Y-71572381D02*
X73160000Y-71096190D01*
X72921905Y-71572381D02*
X72921905Y-70572381D01*
X73302858Y-70572381D01*
X73398096Y-70620000D01*
X73445715Y-70667619D01*
X73493334Y-70762857D01*
X73493334Y-70905714D01*
X73445715Y-71000952D01*
X73398096Y-71048571D01*
X73302858Y-71096190D01*
X72921905Y-71096190D01*
X74350477Y-70905714D02*
X74350477Y-71572381D01*
X74112381Y-70524762D02*
X73874286Y-71239048D01*
X74493334Y-71239048D01*
X73493334Y-67762381D02*
X73160000Y-67286190D01*
X72921905Y-67762381D02*
X72921905Y-66762381D01*
X73302858Y-66762381D01*
X73398096Y-66810000D01*
X73445715Y-66857619D01*
X73493334Y-66952857D01*
X73493334Y-67095714D01*
X73445715Y-67190952D01*
X73398096Y-67238571D01*
X73302858Y-67286190D01*
X72921905Y-67286190D01*
X74398096Y-66762381D02*
X73921905Y-66762381D01*
X73874286Y-67238571D01*
X73921905Y-67190952D01*
X74017143Y-67143333D01*
X74255239Y-67143333D01*
X74350477Y-67190952D01*
X74398096Y-67238571D01*
X74445715Y-67333810D01*
X74445715Y-67571905D01*
X74398096Y-67667143D01*
X74350477Y-67714762D01*
X74255239Y-67762381D01*
X74017143Y-67762381D01*
X73921905Y-67714762D01*
X73874286Y-67667143D01*
X73493334Y-75382381D02*
X73160000Y-74906190D01*
X72921905Y-75382381D02*
X72921905Y-74382381D01*
X73302858Y-74382381D01*
X73398096Y-74430000D01*
X73445715Y-74477619D01*
X73493334Y-74572857D01*
X73493334Y-74715714D01*
X73445715Y-74810952D01*
X73398096Y-74858571D01*
X73302858Y-74906190D01*
X72921905Y-74906190D01*
X74350477Y-74382381D02*
X74160000Y-74382381D01*
X74064762Y-74430000D01*
X74017143Y-74477619D01*
X73921905Y-74620476D01*
X73874286Y-74810952D01*
X73874286Y-75191905D01*
X73921905Y-75287143D01*
X73969524Y-75334762D01*
X74064762Y-75382381D01*
X74255239Y-75382381D01*
X74350477Y-75334762D01*
X74398096Y-75287143D01*
X74445715Y-75191905D01*
X74445715Y-74953810D01*
X74398096Y-74858571D01*
X74350477Y-74810952D01*
X74255239Y-74763333D01*
X74064762Y-74763333D01*
X73969524Y-74810952D01*
X73921905Y-74858571D01*
X73874286Y-74953810D01*
X102560381Y-104306666D02*
X102084190Y-104640000D01*
X102560381Y-104878095D02*
X101560381Y-104878095D01*
X101560381Y-104497142D01*
X101608000Y-104401904D01*
X101655619Y-104354285D01*
X101750857Y-104306666D01*
X101893714Y-104306666D01*
X101988952Y-104354285D01*
X102036571Y-104401904D01*
X102084190Y-104497142D01*
X102084190Y-104878095D01*
X101560381Y-103973333D02*
X101560381Y-103306666D01*
X102560381Y-103735238D01*
X100417334Y-115514381D02*
X100084000Y-115038190D01*
X99845905Y-115514381D02*
X99845905Y-114514381D01*
X100226858Y-114514381D01*
X100322096Y-114562000D01*
X100369715Y-114609619D01*
X100417334Y-114704857D01*
X100417334Y-114847714D01*
X100369715Y-114942952D01*
X100322096Y-114990571D01*
X100226858Y-115038190D01*
X99845905Y-115038190D01*
X100988762Y-114942952D02*
X100893524Y-114895333D01*
X100845905Y-114847714D01*
X100798286Y-114752476D01*
X100798286Y-114704857D01*
X100845905Y-114609619D01*
X100893524Y-114562000D01*
X100988762Y-114514381D01*
X101179239Y-114514381D01*
X101274477Y-114562000D01*
X101322096Y-114609619D01*
X101369715Y-114704857D01*
X101369715Y-114752476D01*
X101322096Y-114847714D01*
X101274477Y-114895333D01*
X101179239Y-114942952D01*
X100988762Y-114942952D01*
X100893524Y-114990571D01*
X100845905Y-115038190D01*
X100798286Y-115133429D01*
X100798286Y-115323905D01*
X100845905Y-115419143D01*
X100893524Y-115466762D01*
X100988762Y-115514381D01*
X101179239Y-115514381D01*
X101274477Y-115466762D01*
X101322096Y-115419143D01*
X101369715Y-115323905D01*
X101369715Y-115133429D01*
X101322096Y-115038190D01*
X101274477Y-114990571D01*
X101179239Y-114942952D01*
X77557334Y-126436381D02*
X77224000Y-125960190D01*
X76985905Y-126436381D02*
X76985905Y-125436381D01*
X77366858Y-125436381D01*
X77462096Y-125484000D01*
X77509715Y-125531619D01*
X77557334Y-125626857D01*
X77557334Y-125769714D01*
X77509715Y-125864952D01*
X77462096Y-125912571D01*
X77366858Y-125960190D01*
X76985905Y-125960190D01*
X78033524Y-126436381D02*
X78224000Y-126436381D01*
X78319239Y-126388762D01*
X78366858Y-126341143D01*
X78462096Y-126198286D01*
X78509715Y-126007810D01*
X78509715Y-125626857D01*
X78462096Y-125531619D01*
X78414477Y-125484000D01*
X78319239Y-125436381D01*
X78128762Y-125436381D01*
X78033524Y-125484000D01*
X77985905Y-125531619D01*
X77938286Y-125626857D01*
X77938286Y-125864952D01*
X77985905Y-125960190D01*
X78033524Y-126007810D01*
X78128762Y-126055429D01*
X78319239Y-126055429D01*
X78414477Y-126007810D01*
X78462096Y-125960190D01*
X78509715Y-125864952D01*
X77081143Y-132532381D02*
X76747809Y-132056190D01*
X76509714Y-132532381D02*
X76509714Y-131532381D01*
X76890667Y-131532381D01*
X76985905Y-131580000D01*
X77033524Y-131627619D01*
X77081143Y-131722857D01*
X77081143Y-131865714D01*
X77033524Y-131960952D01*
X76985905Y-132008571D01*
X76890667Y-132056190D01*
X76509714Y-132056190D01*
X78033524Y-132532381D02*
X77462095Y-132532381D01*
X77747809Y-132532381D02*
X77747809Y-131532381D01*
X77652571Y-131675238D01*
X77557333Y-131770476D01*
X77462095Y-131818095D01*
X78652571Y-131532381D02*
X78747810Y-131532381D01*
X78843048Y-131580000D01*
X78890667Y-131627619D01*
X78938286Y-131722857D01*
X78985905Y-131913333D01*
X78985905Y-132151429D01*
X78938286Y-132341905D01*
X78890667Y-132437143D01*
X78843048Y-132484762D01*
X78747810Y-132532381D01*
X78652571Y-132532381D01*
X78557333Y-132484762D01*
X78509714Y-132437143D01*
X78462095Y-132341905D01*
X78414476Y-132151429D01*
X78414476Y-131913333D01*
X78462095Y-131722857D01*
X78509714Y-131627619D01*
X78557333Y-131580000D01*
X78652571Y-131532381D01*
X80383143Y-113482381D02*
X80049809Y-113006190D01*
X79811714Y-113482381D02*
X79811714Y-112482381D01*
X80192667Y-112482381D01*
X80287905Y-112530000D01*
X80335524Y-112577619D01*
X80383143Y-112672857D01*
X80383143Y-112815714D01*
X80335524Y-112910952D01*
X80287905Y-112958571D01*
X80192667Y-113006190D01*
X79811714Y-113006190D01*
X81335524Y-113482381D02*
X80764095Y-113482381D01*
X81049809Y-113482381D02*
X81049809Y-112482381D01*
X80954571Y-112625238D01*
X80859333Y-112720476D01*
X80764095Y-112768095D01*
X82287905Y-113482381D02*
X81716476Y-113482381D01*
X82002190Y-113482381D02*
X82002190Y-112482381D01*
X81906952Y-112625238D01*
X81811714Y-112720476D01*
X81716476Y-112768095D01*
X89019143Y-137104381D02*
X88685809Y-136628190D01*
X88447714Y-137104381D02*
X88447714Y-136104381D01*
X88828667Y-136104381D01*
X88923905Y-136152000D01*
X88971524Y-136199619D01*
X89019143Y-136294857D01*
X89019143Y-136437714D01*
X88971524Y-136532952D01*
X88923905Y-136580571D01*
X88828667Y-136628190D01*
X88447714Y-136628190D01*
X89971524Y-137104381D02*
X89400095Y-137104381D01*
X89685809Y-137104381D02*
X89685809Y-136104381D01*
X89590571Y-136247238D01*
X89495333Y-136342476D01*
X89400095Y-136390095D01*
X90352476Y-136199619D02*
X90400095Y-136152000D01*
X90495333Y-136104381D01*
X90733429Y-136104381D01*
X90828667Y-136152000D01*
X90876286Y-136199619D01*
X90923905Y-136294857D01*
X90923905Y-136390095D01*
X90876286Y-136532952D01*
X90304857Y-137104381D01*
X90923905Y-137104381D01*
X60396381Y-124848857D02*
X59920190Y-125182191D01*
X60396381Y-125420286D02*
X59396381Y-125420286D01*
X59396381Y-125039333D01*
X59444000Y-124944095D01*
X59491619Y-124896476D01*
X59586857Y-124848857D01*
X59729714Y-124848857D01*
X59824952Y-124896476D01*
X59872571Y-124944095D01*
X59920190Y-125039333D01*
X59920190Y-125420286D01*
X60396381Y-123896476D02*
X60396381Y-124467905D01*
X60396381Y-124182191D02*
X59396381Y-124182191D01*
X59539238Y-124277429D01*
X59634476Y-124372667D01*
X59682095Y-124467905D01*
X59396381Y-123563143D02*
X59396381Y-122944095D01*
X59777333Y-123277429D01*
X59777333Y-123134571D01*
X59824952Y-123039333D01*
X59872571Y-122991714D01*
X59967810Y-122944095D01*
X60205905Y-122944095D01*
X60301143Y-122991714D01*
X60348762Y-123039333D01*
X60396381Y-123134571D01*
X60396381Y-123420286D01*
X60348762Y-123515524D01*
X60301143Y-123563143D01*
X60142381Y-97162857D02*
X59666190Y-97496191D01*
X60142381Y-97734286D02*
X59142381Y-97734286D01*
X59142381Y-97353333D01*
X59190000Y-97258095D01*
X59237619Y-97210476D01*
X59332857Y-97162857D01*
X59475714Y-97162857D01*
X59570952Y-97210476D01*
X59618571Y-97258095D01*
X59666190Y-97353333D01*
X59666190Y-97734286D01*
X60142381Y-96210476D02*
X60142381Y-96781905D01*
X60142381Y-96496191D02*
X59142381Y-96496191D01*
X59285238Y-96591429D01*
X59380476Y-96686667D01*
X59428095Y-96781905D01*
X59475714Y-95353333D02*
X60142381Y-95353333D01*
X59094762Y-95591429D02*
X59809048Y-95829524D01*
X59809048Y-95210476D01*
X60198095Y-104798762D02*
X60340952Y-104846381D01*
X60579048Y-104846381D01*
X60674286Y-104798762D01*
X60721905Y-104751143D01*
X60769524Y-104655905D01*
X60769524Y-104560667D01*
X60721905Y-104465429D01*
X60674286Y-104417810D01*
X60579048Y-104370190D01*
X60388571Y-104322571D01*
X60293333Y-104274952D01*
X60245714Y-104227333D01*
X60198095Y-104132095D01*
X60198095Y-104036857D01*
X60245714Y-103941619D01*
X60293333Y-103894000D01*
X60388571Y-103846381D01*
X60626667Y-103846381D01*
X60769524Y-103894000D01*
X61150476Y-103941619D02*
X61198095Y-103894000D01*
X61293333Y-103846381D01*
X61531429Y-103846381D01*
X61626667Y-103894000D01*
X61674286Y-103941619D01*
X61721905Y-104036857D01*
X61721905Y-104132095D01*
X61674286Y-104274952D01*
X61102857Y-104846381D01*
X61721905Y-104846381D01*
X71758762Y-129793905D02*
X71806381Y-129651048D01*
X71806381Y-129412952D01*
X71758762Y-129317714D01*
X71711143Y-129270095D01*
X71615905Y-129222476D01*
X71520667Y-129222476D01*
X71425429Y-129270095D01*
X71377810Y-129317714D01*
X71330190Y-129412952D01*
X71282571Y-129603429D01*
X71234952Y-129698667D01*
X71187333Y-129746286D01*
X71092095Y-129793905D01*
X70996857Y-129793905D01*
X70901619Y-129746286D01*
X70854000Y-129698667D01*
X70806381Y-129603429D01*
X70806381Y-129365333D01*
X70854000Y-129222476D01*
X70806381Y-128889143D02*
X70806381Y-128270095D01*
X71187333Y-128603429D01*
X71187333Y-128460571D01*
X71234952Y-128365333D01*
X71282571Y-128317714D01*
X71377810Y-128270095D01*
X71615905Y-128270095D01*
X71711143Y-128317714D01*
X71758762Y-128365333D01*
X71806381Y-128460571D01*
X71806381Y-128746286D01*
X71758762Y-128841524D01*
X71711143Y-128889143D01*
X59182095Y-111656762D02*
X59324952Y-111704381D01*
X59563048Y-111704381D01*
X59658286Y-111656762D01*
X59705905Y-111609143D01*
X59753524Y-111513905D01*
X59753524Y-111418667D01*
X59705905Y-111323429D01*
X59658286Y-111275810D01*
X59563048Y-111228190D01*
X59372571Y-111180571D01*
X59277333Y-111132952D01*
X59229714Y-111085333D01*
X59182095Y-110990095D01*
X59182095Y-110894857D01*
X59229714Y-110799619D01*
X59277333Y-110752000D01*
X59372571Y-110704381D01*
X59610667Y-110704381D01*
X59753524Y-110752000D01*
X60610667Y-111037714D02*
X60610667Y-111704381D01*
X60372571Y-110656762D02*
X60134476Y-111371048D01*
X60753524Y-111371048D01*
M02*
