G04 #@! TF.FileFunction,Copper,L1,Top,Signal*
%FSLAX46Y46*%
G04 Gerber Fmt 4.6, Leading zero omitted, Abs format (unit mm)*
G04 Created by KiCad (PCBNEW (2015-04-30 BZR 5634)-product) date Mon 22 Jun 2015 08:21:25 PM CEST*
%MOMM*%
G01*
G04 APERTURE LIST*
%ADD10C,0.100000*%
%ADD11C,0.150000*%
%ADD12O,1.524000X2.524000*%
%ADD13R,2.032000X2.032000*%
%ADD14O,2.032000X2.032000*%
%ADD15C,1.501140*%
%ADD16R,1.400000X1.400000*%
%ADD17C,1.400000*%
%ADD18C,1.480820*%
%ADD19C,1.998980*%
%ADD20R,1.998980X1.998980*%
%ADD21O,2.300000X1.600000*%
%ADD22R,1.699260X1.699260*%
%ADD23C,1.524000*%
%ADD24C,6.500000*%
%ADD25C,0.600000*%
%ADD26C,0.200000*%
%ADD27C,0.300000*%
G04 APERTURE END LIST*
D10*
D11*
X102920800Y-96266000D02*
X101854000Y-96266000D01*
X102362000Y-96774000D02*
X102362000Y-95732600D01*
X76415900Y-115239800D02*
X76415900Y-115539520D01*
X76415900Y-115239800D02*
X76715620Y-115239800D01*
X76116180Y-115239800D02*
X76415900Y-115239800D01*
X76415900Y-115239800D02*
X76415900Y-114940080D01*
D12*
X99060000Y-78740000D03*
X96520000Y-78740000D03*
X93980000Y-78740000D03*
X91440000Y-78740000D03*
X88900000Y-78740000D03*
X88900000Y-63500000D03*
X91440000Y-63500000D03*
X93980000Y-63500000D03*
X96520000Y-63500000D03*
X99060000Y-63500000D03*
X86360000Y-78740000D03*
X83820000Y-78740000D03*
X81280000Y-78740000D03*
X78740000Y-78740000D03*
X76200000Y-78740000D03*
X76200000Y-63500000D03*
X78740000Y-63500000D03*
X81280000Y-63500000D03*
X83820000Y-63500000D03*
X86360000Y-63500000D03*
X73660000Y-78740000D03*
X71120000Y-78740000D03*
X68580000Y-78740000D03*
X66040000Y-78740000D03*
X63500000Y-78740000D03*
X63500000Y-63500000D03*
X66040000Y-63500000D03*
X68580000Y-63500000D03*
X71120000Y-63500000D03*
X73660000Y-63500000D03*
D13*
X100076000Y-82042000D03*
D14*
X100076000Y-84582000D03*
D15*
X100584000Y-94742000D03*
X103124000Y-94742000D03*
D16*
X97282000Y-124714000D03*
D17*
X102282000Y-124714000D03*
D16*
X97282000Y-129540000D03*
D17*
X102282000Y-129540000D03*
D16*
X68072000Y-136652000D03*
D17*
X73072000Y-136652000D03*
D18*
X76215240Y-116840000D03*
X78216760Y-116840000D03*
D16*
X76454000Y-122174000D03*
D17*
X81454000Y-122174000D03*
D19*
X103375460Y-78740000D03*
D20*
X103375460Y-88900000D03*
D21*
X97282000Y-104140000D03*
X97282000Y-101600000D03*
X97282000Y-99060000D03*
X97282000Y-96520000D03*
X97282000Y-93980000D03*
X97282000Y-91440000D03*
X97282000Y-88900000D03*
X97282000Y-86360000D03*
X89662000Y-86360000D03*
X89662000Y-88900000D03*
X89662000Y-91440000D03*
X89662000Y-93980000D03*
X89662000Y-96520000D03*
X89662000Y-99060000D03*
X89662000Y-101600000D03*
X89662000Y-104140000D03*
X84836000Y-109220000D03*
X84836000Y-106680000D03*
X84836000Y-104140000D03*
X84836000Y-101600000D03*
X84836000Y-99060000D03*
X84836000Y-96520000D03*
X84836000Y-93980000D03*
X84836000Y-91440000D03*
X77216000Y-91440000D03*
X77216000Y-93980000D03*
X77216000Y-96520000D03*
X77216000Y-99060000D03*
X77216000Y-101600000D03*
X77216000Y-104140000D03*
X77216000Y-106680000D03*
X77216000Y-109220000D03*
X72390000Y-104140000D03*
X72390000Y-101600000D03*
X72390000Y-99060000D03*
X72390000Y-96520000D03*
X72390000Y-93980000D03*
X72390000Y-91440000D03*
X72390000Y-88900000D03*
X72390000Y-86360000D03*
X64770000Y-86360000D03*
X64770000Y-88900000D03*
X64770000Y-91440000D03*
X64770000Y-93980000D03*
X64770000Y-96520000D03*
X64770000Y-99060000D03*
X64770000Y-101600000D03*
X64770000Y-104140000D03*
X89662000Y-111252000D03*
X89662000Y-113792000D03*
X89662000Y-116332000D03*
X89662000Y-118872000D03*
X97282000Y-118872000D03*
X97282000Y-116332000D03*
X97282000Y-113792000D03*
X97282000Y-111252000D03*
X85852000Y-124460000D03*
X85852000Y-127000000D03*
X85852000Y-129540000D03*
X85852000Y-132080000D03*
X93472000Y-132080000D03*
X93472000Y-129540000D03*
X93472000Y-127000000D03*
X93472000Y-124460000D03*
X64770000Y-113792000D03*
X64770000Y-116332000D03*
X64770000Y-118872000D03*
X64770000Y-121412000D03*
X72390000Y-121412000D03*
X72390000Y-118872000D03*
X72390000Y-116332000D03*
X72390000Y-113792000D03*
D22*
X76452660Y-136652000D03*
D19*
X78992660Y-136652000D03*
X82550000Y-67310000D03*
X92710000Y-67310000D03*
X82550000Y-71120000D03*
X92710000Y-71120000D03*
X92710000Y-74930000D03*
X82550000Y-74930000D03*
X68580000Y-71120000D03*
X78740000Y-71120000D03*
X78740000Y-67310000D03*
X68580000Y-67310000D03*
X78740000Y-74930000D03*
X68580000Y-74930000D03*
X102108000Y-99060000D03*
X102108000Y-109220000D03*
D23*
X102108000Y-116332000D03*
X102108000Y-113792000D03*
X102108000Y-118872000D03*
D19*
X82804000Y-125984000D03*
X72644000Y-125984000D03*
X82804000Y-132080000D03*
X72644000Y-132080000D03*
X86106000Y-113030000D03*
X75946000Y-113030000D03*
X94742000Y-136652000D03*
X84582000Y-136652000D03*
X59944000Y-119126000D03*
X59944000Y-129286000D03*
X59690000Y-91440000D03*
X59690000Y-101600000D03*
D13*
X59690000Y-106426000D03*
D14*
X62230000Y-106426000D03*
D13*
X76454000Y-129032000D03*
D14*
X78994000Y-129032000D03*
D13*
X59944000Y-113792000D03*
D14*
X59944000Y-116332000D03*
D24*
X62230000Y-135890000D03*
X100330000Y-135890000D03*
X81280000Y-85090000D03*
D25*
X91440000Y-82550000D03*
X91440000Y-87630000D03*
X91440000Y-90170000D03*
X91440000Y-92710000D03*
X90170000Y-81534000D03*
X90170000Y-75692000D03*
X95250000Y-76962000D03*
X95250000Y-83058000D03*
X95250000Y-87630000D03*
X97790000Y-76962000D03*
X93980000Y-85090000D03*
X76454000Y-88138000D03*
X79502000Y-90932000D03*
X85852000Y-89408000D03*
X85598000Y-86106000D03*
X59944000Y-84328000D03*
X62992000Y-84328000D03*
X70104000Y-83312000D03*
X71120000Y-69088000D03*
X62484000Y-69088000D03*
X58928000Y-83312000D03*
X66040000Y-73152000D03*
X60960000Y-73152000D03*
X59944000Y-81280000D03*
X74676000Y-81280000D03*
X89662000Y-122936000D03*
X92202000Y-120396000D03*
X94742000Y-115062000D03*
X94742000Y-112776000D03*
D26*
X89662000Y-91440000D02*
X92202000Y-91440000D01*
X97282000Y-80518000D02*
X99060000Y-78740000D01*
X96266000Y-80518000D02*
X97282000Y-80518000D01*
X92456000Y-84328000D02*
X96266000Y-80518000D01*
X92456000Y-91186000D02*
X92456000Y-84328000D01*
X92202000Y-91440000D02*
X92456000Y-91186000D01*
X89662000Y-85598000D02*
X96520000Y-78740000D01*
X89662000Y-86360000D02*
X89662000Y-85598000D01*
X94488000Y-78232000D02*
X93980000Y-78740000D01*
X94488000Y-72644000D02*
X94488000Y-78232000D01*
X92964000Y-71120000D02*
X94488000Y-72644000D01*
X92710000Y-71120000D02*
X92964000Y-71120000D01*
X91440000Y-82550000D02*
X91440000Y-78740000D01*
X91440000Y-90170000D02*
X91440000Y-87630000D01*
X91440000Y-95504000D02*
X91440000Y-92710000D01*
X90424000Y-96520000D02*
X91440000Y-95504000D01*
X89662000Y-96520000D02*
X90424000Y-96520000D01*
X88900000Y-75946000D02*
X90170000Y-77216000D01*
X90170000Y-77216000D02*
X90170000Y-80010000D01*
X90170000Y-80010000D02*
X89408000Y-80772000D01*
X89408000Y-80772000D02*
X88392000Y-80772000D01*
X88392000Y-80772000D02*
X87376000Y-81788000D01*
X87376000Y-81788000D02*
X87376000Y-91694000D01*
X87376000Y-91694000D02*
X89662000Y-93980000D01*
X88900000Y-63500000D02*
X88900000Y-75946000D01*
X89154000Y-88900000D02*
X89662000Y-88900000D01*
X87884000Y-87630000D02*
X89154000Y-88900000D01*
X87884000Y-83820000D02*
X87884000Y-87630000D01*
X90170000Y-81534000D02*
X87884000Y-83820000D01*
X90170000Y-65532000D02*
X90170000Y-75692000D01*
X91440000Y-64262000D02*
X90170000Y-65532000D01*
X91440000Y-63500000D02*
X91440000Y-64262000D01*
X92710000Y-64770000D02*
X93980000Y-63500000D01*
X92710000Y-67310000D02*
X92710000Y-64770000D01*
X96520000Y-75692000D02*
X95250000Y-76962000D01*
X95250000Y-83058000D02*
X95250000Y-87630000D01*
X96520000Y-63500000D02*
X96520000Y-75692000D01*
X97282000Y-88900000D02*
X94488000Y-88900000D01*
X97790000Y-65786000D02*
X99060000Y-64516000D01*
X97790000Y-76962000D02*
X97790000Y-65786000D01*
X93980000Y-88392000D02*
X93980000Y-85090000D01*
X94488000Y-88900000D02*
X93980000Y-88392000D01*
X99060000Y-64516000D02*
X99060000Y-63500000D01*
X86360000Y-86360000D02*
X86360000Y-78740000D01*
X83566000Y-89154000D02*
X86360000Y-86360000D01*
X80010000Y-89154000D02*
X83566000Y-89154000D01*
X78740000Y-90424000D02*
X80010000Y-89154000D01*
X78740000Y-95504000D02*
X78740000Y-90424000D01*
X78232000Y-96520000D02*
X78740000Y-95504000D01*
X77216000Y-96520000D02*
X78232000Y-96520000D01*
X83820000Y-79502000D02*
X83820000Y-78740000D01*
X77216000Y-83058000D02*
X79502000Y-80772000D01*
X79502000Y-80772000D02*
X82550000Y-80772000D01*
X82550000Y-80772000D02*
X83820000Y-79502000D01*
X77216000Y-91440000D02*
X77216000Y-83058000D01*
X80772000Y-75692000D02*
X80772000Y-73152000D01*
X80772000Y-73152000D02*
X78740000Y-71120000D01*
X81280000Y-78740000D02*
X81280000Y-76200000D01*
X81280000Y-76200000D02*
X80772000Y-75692000D01*
X78740000Y-80518000D02*
X78740000Y-78740000D01*
X76454000Y-82804000D02*
X78740000Y-80518000D01*
X76454000Y-88138000D02*
X76454000Y-82804000D01*
X79248000Y-91186000D02*
X79502000Y-90932000D01*
X79248000Y-99822000D02*
X79248000Y-91186000D01*
X77470000Y-101600000D02*
X79248000Y-99822000D01*
X77216000Y-101600000D02*
X77470000Y-101600000D01*
X75946000Y-99060000D02*
X74930000Y-98044000D01*
X74930000Y-98044000D02*
X74930000Y-88392000D01*
X74930000Y-88392000D02*
X75184000Y-88138000D01*
X75184000Y-88138000D02*
X75184000Y-81788000D01*
X75184000Y-81788000D02*
X75438000Y-81026000D01*
X75438000Y-81026000D02*
X74930000Y-80010000D01*
X74930000Y-80010000D02*
X74930000Y-64770000D01*
X74930000Y-64770000D02*
X76200000Y-63500000D01*
X77216000Y-99060000D02*
X75946000Y-99060000D01*
X78740000Y-65024000D02*
X78740000Y-63500000D01*
X77216000Y-66548000D02*
X78740000Y-65024000D01*
X77216000Y-70104000D02*
X77216000Y-66548000D01*
X77216000Y-76200000D02*
X77216000Y-70104000D01*
X77470000Y-76454000D02*
X77216000Y-76200000D01*
X77470000Y-80010000D02*
X77470000Y-76454000D01*
X75692000Y-82296000D02*
X77470000Y-80010000D01*
X75692000Y-88138000D02*
X75692000Y-82296000D01*
X75692000Y-90170000D02*
X75692000Y-88138000D01*
X75692000Y-92456000D02*
X75692000Y-90170000D01*
X76962000Y-93980000D02*
X75692000Y-92456000D01*
X77216000Y-93980000D02*
X76962000Y-93980000D01*
X81280000Y-65532000D02*
X80772000Y-66040000D01*
X81280000Y-63500000D02*
X81280000Y-65532000D01*
X80772000Y-66040000D02*
X80772000Y-72136000D01*
X80772000Y-72136000D02*
X82550000Y-73914000D01*
X82550000Y-73914000D02*
X82550000Y-74930000D01*
X86614000Y-94742000D02*
X86614000Y-90170000D01*
X86614000Y-90170000D02*
X85852000Y-89408000D01*
X85598000Y-86106000D02*
X85598000Y-80772000D01*
X85598000Y-80772000D02*
X85090000Y-80264000D01*
X85090000Y-80264000D02*
X85090000Y-64770000D01*
X85090000Y-64770000D02*
X83820000Y-63500000D01*
X84836000Y-96520000D02*
X86614000Y-94742000D01*
X87630000Y-64770000D02*
X86360000Y-63500000D01*
X87630000Y-80010000D02*
X87630000Y-64770000D01*
X86868000Y-80772000D02*
X87630000Y-80010000D01*
X86868000Y-86868000D02*
X86868000Y-80772000D01*
X83058000Y-90678000D02*
X86868000Y-86868000D01*
X83058000Y-92456000D02*
X83058000Y-90678000D01*
X84582000Y-93980000D02*
X83058000Y-92456000D01*
X84836000Y-93980000D02*
X84582000Y-93980000D01*
X67056000Y-84328000D02*
X70104000Y-81280000D01*
X70104000Y-81280000D02*
X72644000Y-81280000D01*
X72644000Y-81280000D02*
X73660000Y-80264000D01*
X64770000Y-91440000D02*
X65532000Y-91440000D01*
X65532000Y-91440000D02*
X67056000Y-89916000D01*
X67056000Y-89916000D02*
X67056000Y-84328000D01*
X73660000Y-80264000D02*
X73660000Y-78740000D01*
X64770000Y-85090000D02*
X71120000Y-78740000D01*
X64770000Y-86360000D02*
X64770000Y-85090000D01*
X68580000Y-78740000D02*
X68580000Y-74930000D01*
X64770000Y-96520000D02*
X64516000Y-96520000D01*
X62992000Y-94996000D02*
X59944000Y-87884000D01*
X64516000Y-96520000D02*
X62992000Y-94996000D01*
X59944000Y-87884000D02*
X59944000Y-84328000D01*
X62992000Y-84328000D02*
X66040000Y-81280000D01*
X66040000Y-81280000D02*
X66040000Y-78740000D01*
X63500000Y-72136000D02*
X63500000Y-63500000D01*
X60960000Y-74676000D02*
X63500000Y-72136000D01*
X60960000Y-87884000D02*
X60960000Y-74676000D01*
X62992000Y-92456000D02*
X60960000Y-87884000D01*
X64516000Y-93980000D02*
X62992000Y-92456000D01*
X64770000Y-93980000D02*
X64516000Y-93980000D01*
X62992000Y-88900000D02*
X61976000Y-87884000D01*
X61976000Y-87884000D02*
X61976000Y-75692000D01*
X61976000Y-75692000D02*
X66040000Y-71628000D01*
X66040000Y-71628000D02*
X66040000Y-63500000D01*
X64770000Y-88900000D02*
X62992000Y-88900000D01*
X68580000Y-67310000D02*
X68580000Y-63500000D01*
X70104000Y-90424000D02*
X70104000Y-83312000D01*
X71120000Y-69088000D02*
X71120000Y-63500000D01*
X62484000Y-70612000D02*
X62484000Y-69088000D01*
X61468000Y-71628000D02*
X62484000Y-70612000D01*
X60452000Y-71628000D02*
X61468000Y-71628000D01*
X58928000Y-73152000D02*
X60452000Y-71628000D01*
X58928000Y-83312000D02*
X58928000Y-73152000D01*
X71120000Y-91440000D02*
X70104000Y-90424000D01*
X72390000Y-91440000D02*
X71120000Y-91440000D01*
X73660000Y-72136000D02*
X73660000Y-63500000D01*
X72644000Y-73152000D02*
X73660000Y-72136000D01*
X66040000Y-73152000D02*
X72644000Y-73152000D01*
X60960000Y-73660000D02*
X60960000Y-73152000D01*
X59944000Y-74676000D02*
X60960000Y-73660000D01*
X59944000Y-81280000D02*
X59944000Y-74676000D01*
X74676000Y-87884000D02*
X74676000Y-81280000D01*
X73660000Y-88900000D02*
X74676000Y-87884000D01*
X72390000Y-88900000D02*
X73660000Y-88900000D01*
D27*
X100076000Y-82039460D02*
X103375460Y-78740000D01*
X100076000Y-82042000D02*
X100076000Y-82039460D01*
X82550000Y-67310000D02*
X82550000Y-71120000D01*
D26*
X97282000Y-111252000D02*
X97536000Y-111252000D01*
X97536000Y-111252000D02*
X102108000Y-106680000D01*
X102108000Y-106680000D02*
X102108000Y-99060000D01*
D27*
X102108000Y-99060000D02*
X97282000Y-99060000D01*
X89662000Y-104140000D02*
X84836000Y-104140000D01*
X78994000Y-109220000D02*
X77216000Y-109220000D01*
X84074000Y-104140000D02*
X78994000Y-109220000D01*
X84836000Y-104140000D02*
X84074000Y-104140000D01*
X76962000Y-109220000D02*
X72390000Y-113792000D01*
X77216000Y-109220000D02*
X76962000Y-109220000D01*
X72390000Y-111760000D02*
X64770000Y-104140000D01*
X72390000Y-113792000D02*
X72390000Y-111760000D01*
X62484000Y-106426000D02*
X64770000Y-104140000D01*
X62230000Y-106426000D02*
X62484000Y-106426000D01*
X59944000Y-126238000D02*
X64770000Y-121412000D01*
X59944000Y-129286000D02*
X59944000Y-126238000D01*
X72644000Y-125984000D02*
X72644000Y-132080000D01*
X80772000Y-113030000D02*
X86106000Y-113030000D01*
X77216000Y-109474000D02*
X80772000Y-113030000D01*
X77216000Y-109220000D02*
X77216000Y-109474000D01*
X88392000Y-118872000D02*
X86106000Y-116586000D01*
X86106000Y-116586000D02*
X86106000Y-113030000D01*
X89662000Y-118872000D02*
X88392000Y-118872000D01*
X89662000Y-120650000D02*
X93472000Y-124460000D01*
X89662000Y-118872000D02*
X89662000Y-120650000D01*
X91694000Y-124460000D02*
X90932000Y-125222000D01*
X90932000Y-125222000D02*
X90932000Y-128778000D01*
X90932000Y-128778000D02*
X91694000Y-129540000D01*
X91694000Y-129540000D02*
X93472000Y-129540000D01*
X93472000Y-124460000D02*
X91694000Y-124460000D01*
X91440000Y-131318000D02*
X91440000Y-133350000D01*
X91440000Y-133350000D02*
X94742000Y-136652000D01*
X93218000Y-129540000D02*
X91440000Y-131318000D01*
X93472000Y-129540000D02*
X93218000Y-129540000D01*
X70104000Y-115824000D02*
X70104000Y-123444000D01*
X70104000Y-123444000D02*
X72644000Y-125984000D01*
X72136000Y-113792000D02*
X70104000Y-115824000D01*
X72390000Y-113792000D02*
X72136000Y-113792000D01*
X102108000Y-95758000D02*
X103124000Y-94742000D01*
X102108000Y-99060000D02*
X102108000Y-95758000D01*
X103124000Y-89151460D02*
X103375460Y-88900000D01*
X103124000Y-94742000D02*
X103124000Y-89151460D01*
D26*
X97282000Y-116332000D02*
X102108000Y-116332000D01*
X97282000Y-116332000D02*
X97536000Y-116332000D01*
X97536000Y-116332000D02*
X99060000Y-117856000D01*
X99060000Y-122936000D02*
X97282000Y-124714000D01*
X99060000Y-117856000D02*
X99060000Y-122936000D01*
X89662000Y-113792000D02*
X94742000Y-113792000D01*
X94742000Y-113792000D02*
X97282000Y-116332000D01*
X97282000Y-118872000D02*
X96774000Y-118872000D01*
X96774000Y-118872000D02*
X95250000Y-120396000D01*
X95250000Y-120396000D02*
X95250000Y-127508000D01*
X95250000Y-127508000D02*
X97282000Y-129540000D01*
X64770000Y-118872000D02*
X66548000Y-118872000D01*
X68072000Y-120396000D02*
X68072000Y-136652000D01*
X66548000Y-118872000D02*
X68072000Y-120396000D01*
X73072000Y-136652000D02*
X73406000Y-136652000D01*
X73406000Y-136652000D02*
X76200000Y-133858000D01*
X76200000Y-133858000D02*
X84074000Y-133858000D01*
X84074000Y-133858000D02*
X85852000Y-132080000D01*
X82804000Y-132080000D02*
X85852000Y-132080000D01*
X72390000Y-116332000D02*
X72644000Y-116332000D01*
X72644000Y-116332000D02*
X75946000Y-113030000D01*
X72390000Y-118872000D02*
X74183240Y-118872000D01*
X74183240Y-118872000D02*
X76215240Y-116840000D01*
X72390000Y-118872000D02*
X72390000Y-116332000D01*
X72390000Y-121412000D02*
X75692000Y-121412000D01*
X75692000Y-121412000D02*
X76454000Y-122174000D01*
X89662000Y-116332000D02*
X89408000Y-116332000D01*
X89408000Y-116332000D02*
X87884000Y-114808000D01*
X87884000Y-114808000D02*
X87884000Y-110744000D01*
X87884000Y-110744000D02*
X94488000Y-104140000D01*
X94488000Y-104140000D02*
X97282000Y-104140000D01*
X76452660Y-136652000D02*
X76452660Y-135383340D01*
X88138000Y-130810000D02*
X86868000Y-129540000D01*
X88138000Y-133096000D02*
X88138000Y-130810000D01*
X86614000Y-134620000D02*
X88138000Y-133096000D01*
X77216000Y-134620000D02*
X86614000Y-134620000D01*
X76452660Y-135383340D02*
X77216000Y-134620000D01*
X86868000Y-129540000D02*
X85852000Y-129540000D01*
X87884000Y-129540000D02*
X89662000Y-127762000D01*
X89662000Y-127762000D02*
X89662000Y-122936000D01*
X92202000Y-120396000D02*
X94742000Y-117856000D01*
X94742000Y-117856000D02*
X94742000Y-115062000D01*
X94742000Y-112776000D02*
X94742000Y-107950000D01*
X94742000Y-107950000D02*
X96520000Y-106172000D01*
X96520000Y-106172000D02*
X98552000Y-106172000D01*
X98552000Y-106172000D02*
X99568000Y-105156000D01*
X99568000Y-105156000D02*
X99568000Y-102108000D01*
X99568000Y-102108000D02*
X99060000Y-101600000D01*
X99060000Y-101600000D02*
X97282000Y-101600000D01*
X85852000Y-129540000D02*
X87884000Y-129540000D01*
X88138000Y-109220000D02*
X94488000Y-102870000D01*
X94488000Y-102870000D02*
X94488000Y-96774000D01*
X94488000Y-96774000D02*
X97282000Y-93980000D01*
X84836000Y-109220000D02*
X88138000Y-109220000D01*
X69850000Y-106680000D02*
X64770000Y-101600000D01*
X77216000Y-106680000D02*
X69850000Y-106680000D01*
X79756000Y-106680000D02*
X83566000Y-102870000D01*
X83566000Y-102870000D02*
X88392000Y-102870000D01*
X88392000Y-102870000D02*
X89662000Y-101600000D01*
X77216000Y-106680000D02*
X79756000Y-106680000D01*
X59690000Y-101600000D02*
X64770000Y-101600000D01*
X59690000Y-101600000D02*
X59690000Y-106426000D01*
X74422000Y-104140000D02*
X75692000Y-102870000D01*
X75692000Y-102870000D02*
X78740000Y-102870000D01*
X78740000Y-102870000D02*
X82550000Y-99060000D01*
X82550000Y-99060000D02*
X84836000Y-99060000D01*
X72390000Y-104140000D02*
X74422000Y-104140000D01*
X102108000Y-113792000D02*
X102108000Y-109220000D01*
X97282000Y-113792000D02*
X102108000Y-113792000D01*
X78994000Y-129032000D02*
X81788000Y-129032000D01*
X81788000Y-129032000D02*
X83820000Y-127000000D01*
X83820000Y-127000000D02*
X85852000Y-127000000D01*
X85852000Y-127000000D02*
X83820000Y-127000000D01*
X83820000Y-127000000D02*
X82804000Y-125984000D01*
X59944000Y-119126000D02*
X61976000Y-119126000D01*
X61976000Y-119126000D02*
X64770000Y-116332000D01*
X64770000Y-116332000D02*
X59944000Y-116332000D01*
X78992660Y-136652000D02*
X84582000Y-136652000D01*
M02*
